<svg width="153" height="160" viewBox="0 0 153 160" fill="none" xmlns="http://www.w3.org/2000/svg">
<path opacity="0.4" d="M80 160C124.182 160 160 124.183 160 79.9999C160 35.8172 124.182 0 80 0C35.8172 0 0 35.8172 0 79.9999C0 124.183 35.8172 160 80 160Z" fill="#EEEEEE"/>
<path d="M80 39.4375C63.44 39.4375 50 52.8775 50 69.4372C50 85.6772 62.72 98.8772 79.6 99.3572C79.84 99.3572 80.16 99.3572 80.32 99.3572C80.48 99.3572 80.72 99.3572 80.88 99.3572C80.96 99.3572 81.04 99.3572 81.04 99.3572C97.2 98.7972 109.92 85.6772 110 69.4372C110 52.8775 96.56 39.4375 80 39.4375Z" fill="#557FFE" fill-opacity="0.2"/>
<path d="M134.248 138.804C120.008 151.924 100.968 160.004 80.0076 160.004C59.0476 160.004 40.0076 151.924 25.7676 138.804C27.6876 131.524 32.8876 124.884 40.4876 119.764C62.3276 105.204 97.8476 105.204 119.528 119.764C127.208 124.884 132.328 131.524 134.248 138.804Z" fill="#557FFE" fill-opacity="0.2"/>
</svg>
