<svg width="243" height="242" viewBox="0 0 243 242" fill="none" xmlns="http://www.w3.org/2000/svg">
<circle cx="121.5" cy="121" r="121" fill="#F5F5F5"/>
<path d="M79.6591 109.727H79.6595L95.6708 109.72C94.7688 111.266 94.1951 113.028 94.0464 114.909L94.0448 114.928L94.0441 114.948L94.0087 115.847L94.0079 115.867V115.886V143.496C94.0079 147.903 95.042 152.072 96.8815 155.77C95.022 156.448 93.0123 156.818 90.9142 156.818C81.2966 156.818 73.5 149.022 73.5 139.404V115.886C73.5 112.485 76.2575 109.727 79.6591 109.727ZM147.535 109.72L163.522 109.727H163.523C166.924 109.727 169.682 112.485 169.682 115.886V139.409C169.682 149.024 161.888 156.818 152.273 156.818C150.181 156.818 148.178 156.45 146.322 155.775C147.97 152.465 148.972 148.777 149.164 144.878L149.165 144.866L149.165 144.853L149.198 143.52L149.198 143.508V143.496V115.886C149.198 113.639 148.592 111.531 147.535 109.72ZM136.948 109.727C140.35 109.727 143.107 112.485 143.107 115.886V143.496C143.107 155.372 133.48 165 121.603 165C109.727 165 100.099 155.372 100.099 143.496V115.886C100.099 112.485 102.856 109.727 106.258 109.727H136.948ZM121.591 77C128.946 77 134.909 82.9628 134.909 90.3182C134.909 97.6736 128.946 103.636 121.591 103.636C114.235 103.636 108.273 97.6736 108.273 90.3182C108.273 82.9628 114.235 77 121.591 77ZM154.33 81.0909C160.556 81.0909 165.603 86.1379 165.603 92.3636C165.603 98.5894 160.556 103.636 154.33 103.636C148.105 103.636 143.058 98.5894 143.058 92.3636C143.058 86.1379 148.105 81.0909 154.33 81.0909ZM88.8514 81.0909C95.0772 81.0909 100.124 86.1379 100.124 92.3636C100.124 98.5894 95.0772 103.636 88.8514 103.636C82.6257 103.636 77.5787 98.5894 77.5787 92.3636C77.5787 86.1379 82.6257 81.0909 88.8514 81.0909Z" fill="#EEEEEE" stroke="#676767" stroke-width="2"/>
</svg>
